{"title":"300, Rise of an Empire 2014 DVD9rip English Klam","uid":10292181,"size":1899136373,"categoryP":"video","categoryS":"movies","magnet":"?xt=urn:btih:1c95bf9dbfa5f1fc0171d3ad84cca7eac283e1a6&amp;dn=300%2C+Rise+of+an+Empire+2014+DVD9rip+English+Klam&amp;tr=udp%3A%2F%2Ftracker.openbittorrent.com%3A80&amp;tr=udp%3A%2F%2Fopen.demonii.com%3A1337&amp;tr=udp%3A%2F%2Ftracker.coppersurfer.tk%3A6969&amp;tr=udp%3A%2F%2Fexodus.desync.com%3A6969","seeders":1,"leechers":1,"uploader":"Klambake","files":-1,"time":1401874028,"description":"with: Rodrigo Santoro, Lena Headey and Eva Green\n\nNa de overwinning op Leonidas' 300, trekt het Perzische leger onder leiding van Xerxes verder in zuidelijke richting naar de grote Griekse steden. Het democratische Athene is de eerste stad die ze tegenkomen op hun pad. De stad heeft een sterke vloot en staat onder leiding van admiraal Themistocles. Themistocles is gedwongen een alliantie aan te gaan met de aartsrivaal van Athene, het oligarchische Sparta, wiens macht ligt bij zijn superieure infanterie. Xerxes heerst echter nog steeds oppermachtig in aantallen, zowel op zee als op land.\n\nGreek general Themistokles leads the charge against invading Persian forces led by mortal-turned-god Xerxes and Artemisia, vengeful commander of the Persian navy.\n &lt;a href=&quot;\nhttp://www.imdb.com/title/tt1253863&quot; rel=&quot;nofollow&quot; target=&quot;_NEW&quot;&gt;\nhttp://www.imdb.com/title/tt1253863&lt;/a&gt;\t\n\n--------------------- Dutch Friends 4ever ---------------------\n---------------------------------------------------------------\n- Bezoek ook eens mijn vrienden op: &lt;a href=&quot; http://www.Film-Test.nl&quot; rel=&quot;nofollow&quot; target=&quot;_NEW&quot;&gt; http://www.Film-Test.nl&lt;/a&gt; --\n----- voor mijn Nederlandse Sync. ondertitels ---- en meer ----\n------- http://www.Film-Test.nl ---- Over Films en meer -------\n---------------------------------------------------------------\n &lt;a href=&quot;\nhttp://i.imgur.com/dag66SI.jpg&quot; rel=&quot;nofollow&quot; target=&quot;_NEW&quot;&gt;\nhttp://i.imgur.com/dag66SI.jpg&lt;/a&gt; &lt;a href=&quot;\nhttp://i.imgur.com/DOxscIS.jpg&quot; rel=&quot;nofollow&quot; target=&quot;_NEW&quot;&gt;\nhttp://i.imgur.com/DOxscIS.jpg&lt;/a&gt; &lt;a href=&quot;\nhttp://i.imgur.com/GxbX5YS.jpg&quot; rel=&quot;nofollow&quot; target=&quot;_NEW&quot;&gt;\nhttp://i.imgur.com/GxbX5YS.jpg&lt;/a&gt;\n\nGeneral:\n\nComplete name                            : 300, Rise of an Empire300, Rise of an Empire.avi\nFormat                                   : AVI\nFormat/Info                              : Audio Video Interleave\nFile size                                : 1.76 GiB\nDuration                                 : 1h 42mn\nOverall bit rate                         : 2 462 Kbps\n\nVideo:\n\nFormat                                   : MPEG-4 Visual\nFormat profile                           : Simple@L3\nFormat settings, BVOP                    : No\nFormat settings, QPel                    : No\nFormat settings, GMC                     : No warppoints\nFormat settings, Matrix                  : Default (H.263)\nCodec ID                                 : XVID\nCodec ID/Hint                            : XviD\nDuration                                 : 1h 42mn\nBit rate                                 : 2 004 Kbps\nWidth                                    : 720 pixels\nHeight                                   : 304 pixels\nDisplay aspect ratio                     : 2.35:1\nFrame rate                               : 23.976 fps\nColor space                              : YUV\nChroma subsampling                       : 4:2:0\nBit depth                                : 8 bits\nScan type                                : Progressive\nCompression mode                         : Lossy\nBits/(Pixel*Frame)                       : 0.382\nStream size                              : 1.44 GiB (81%)\nWriting library                          : XviD 1.1.2 (UTC 2006-11-01)\n\nAudio:\n\nFormat                                   : AC-3\nFormat/Info                              : Audio Coding 3\nMode extension                           : CM (complete main)\nFormat settings, Endianness              : Big\nCodec ID                                 : 2000\nDuration                                 : 1h 42mn\nSource duration                          : 1h 42mn\nBit rate mode                            : Constant\nBit rate                                 : 448 Kbps\nChannel(s)                               : 6 channels\nChannel positions                        : Front: L C R, Side: L R, LFE\nSampling rate                            : 48.0 KHz\nBit depth                                : 16 bits\nCompression mode                         : Lossy\nStream size                              : 329 MiB (18%)\nAlignment                                : Aligned on interleaves\nInterleave, duration                     : 32 ms (0.77 video frame)\nInterleave, preload duration             : 512 ms\n\n\n","torrent":{"xt":"urn:btih:1c95bf9dbfa5f1fc0171d3ad84cca7eac283e1a6","amp;dn":"300%2C+Rise+of+an+Empire+2014+DVD9rip+English+Klam","amp;tr":["udp%3A%2F%2Ftracker.openbittorrent.com%3A80","udp%3A%2F%2Fopen.demonii.com%3A1337","udp%3A%2F%2Ftracker.coppersurfer.tk%3A6969","udp%3A%2F%2Fexodus.desync.com%3A6969"],"infoHash":"1c95bf9dbfa5f1fc0171d3ad84cca7eac283e1a6","infoHashBuffer":{"type":"Buffer","data":[28,149,191,157,191,165,241,252,1,113,211,173,132,204,167,234,194,131,225,166]},"announce":[],"urlList":[]}}